<svg xmlns="http://www.w3.org/2000/svg" width="128" height="128" viewBox="0 0 128 128" fill="none">
  <defs>
    <linearGradient id="g" x1="16" y1="18" x2="114" y2="112" gradientUnits="userSpaceOnUse">
      <stop stop-color="#22D3EE"/>
      <stop offset="0.55" stop-color="#8B5CF6"/>
      <stop offset="1" stop-color="#F59E0B"/>
    </linearGradient>
    <filter id="glow" x="-30%" y="-30%" width="160%" height="160%">
      <feGaussianBlur stdDeviation="3" result="b"/>
      <feMerge>
        <feMergeNode in="b"/>
        <feMergeNode in="SourceGraphic"/>
      </feMerge>
    </filter>
  </defs>

  <g filter="url(#glow)">
    <path d="M30 66V52c0-4 3-7 7-7h8l26-16c3-2 7 0 7 4v62c0 4-4 6-7 4L45 83h-8c-4 0-7-3-7-7V66Z"
      stroke="url(#g)" stroke-width="3" stroke-linejoin="round"/>
    <path d="M78 48c8 4 8 28 0 32" stroke="url(#g)" stroke-width="3" stroke-linecap="round"/>
    <path d="M86 42c14 7 14 45 0 52" stroke="url(#g)" stroke-width="3" stroke-linecap="round"/>
    <path d="M42 84l6 20c1 4-2 8-6 8h-6l-6-28" stroke="url(#g)" stroke-width="3" stroke-linecap="round" stroke-linejoin="round"/>
    <path d="M98 30l6-6M102 66h10M98 102l6 6" stroke="url(#g)" stroke-width="3" stroke-linecap="round"/>
  </g>
</svg>
